<svg width="64" height="64" viewBox="0 0 64 64" fill="none" xmlns="http://www.w3.org/2000/svg">
  <path d="M0 14C0 6.26801 6.26801 0 14 0H49.9886C57.7206 0 63.9886 6.26801 63.9886 14V49.9886C63.9886 57.7206 57.7206 63.9886 49.9886 63.9886H14C6.26801 63.9886 0 57.7206 0 49.9886V14Z" fill="#155DFC"/>
  <path d="M31.9946 45.3227C39.3558 45.3227 45.3232 39.3553 45.3232 31.9941C45.3232 24.6329 39.3558 18.6655 31.9946 18.6655C24.6334 18.6655 18.666 24.6329 18.666 31.9941C18.666 39.3553 24.6334 45.3227 31.9946 45.3227Z" stroke="white" stroke-width="2.66572"/>
  <path d="M31.9941 23.9971V31.9942L37.3256 34.6599" stroke="white" stroke-width="2.66572"/>
</svg>
