<svg width="22" height="20" viewBox="0 0 22 20" fill="none" xmlns="http://www.w3.org/2000/svg">
<path d="M7.3125 2.86133L7.38566 2.72963C7.93399 1.74264 8.88806 1.04622 9.99522 0.824785C10.4935 0.725134 11.0065 0.725134 11.5048 0.824785C12.6119 1.04622 13.566 1.74264 14.1143 2.72963L20.3002 13.8643C20.5952 14.3952 20.75 14.9926 20.75 15.5999C20.75 17.5737 19.1499 19.1738 17.1761 19.1738H4.32391C2.35009 19.1738 0.75 17.5737 0.75 15.5999C0.75 14.9926 0.904788 14.3952 1.19975 13.8643L4.5 7.92383L5.4375 6.23633" stroke="white" stroke-width="1.5" stroke-linecap="round"/>
<path d="M10.75 6.67383L10.75 10.6738" stroke="white" stroke-width="1.5" stroke-linecap="round" stroke-linejoin="round"/>
<path d="M10.75 13.6738L10.75 14.1738" stroke="white" stroke-width="1.5" stroke-linecap="round" stroke-linejoin="round"/>
</svg>
