<svg width="17" height="22" viewBox="0 0 17 22" fill="none" xmlns="http://www.w3.org/2000/svg">
<path d="M0.75 2.25C0.75 1.42157 1.42157 0.75 2.25 0.75H7.25C8.07843 0.75 8.75 1.42157 8.75 2.25V10.25C8.75 11.0784 8.07843 11.75 7.25 11.75H0.75V2.25Z" stroke="white" stroke-width="1.5"/>
<path d="M8.75 2.75H14.7862C15.6035 2.75 16.0757 3.6772 15.595 4.33817L13.6055 7.07366C13.0955 7.77496 13.0955 8.72504 13.6055 9.42634L15.595 12.1618C16.0757 12.8228 15.6035 13.75 14.7862 13.75H9.75C9.19772 13.75 8.75 13.3023 8.75 12.75V2.75Z" stroke="white" stroke-width="1.5"/>
<path d="M0.750001 20.75L0.75 2.75" stroke="white" stroke-width="1.5" stroke-linecap="round" stroke-linejoin="round"/>
</svg>
