<svg width="21" height="22" viewBox="0 0 21 22" fill="none" xmlns="http://www.w3.org/2000/svg">
<circle cx="3" cy="3" r="3" transform="matrix(-1 0 0 1 13.2344 7.75)" stroke="white" stroke-width="1.5"/>
<path d="M10.2344 0.75L10.2344 0H10.2344V0.75ZM14.7344 3.6875L14.3594 4.33702L14.3594 4.33705L14.7344 3.6875ZM14.7344 17.8125L14.3594 17.163L14.3594 17.163L14.7344 17.8125ZM10.2344 20.75V21.5H10.2344L10.2344 20.75ZM5.73438 17.8125L6.10948 17.163L6.10938 17.163L5.73438 17.8125ZM5.73438 3.6875L6.10938 4.33702L6.10945 4.33698L5.73438 3.6875ZM1.1416 8.43646L1.61865 7.85774L1.1416 8.43646ZM3.55025 17.4918L3.3783 16.7618L3.55025 17.4918ZM2.64287 17.2548L3.21213 16.7665L2.64287 17.2548ZM7.76909 20.4435L7.58471 21.1705L7.76909 20.4435ZM7.1536 19.7338L6.42278 19.9024L7.1536 19.7338ZM13.3134 19.7338L12.5826 19.5649L13.3134 19.7338ZM12.6976 20.4435L12.5132 19.7165V19.7165L12.6976 20.4435ZM17.8238 17.255L17.2546 16.7666L17.8238 17.255ZM19.6758 7.45679L20.384 7.20987L19.6758 7.45679ZM19.3262 8.43652L19.8034 9.01513L19.3262 8.43652ZM1.14147 13.0627L0.664511 12.4839L1.14147 13.0627ZM17.8249 4.24417L17.2557 4.7325L17.8249 4.24417ZM19.6759 14.0421L20.3841 14.289L19.6759 14.0421ZM13.3133 1.76539L12.5825 1.93414L13.3133 1.76539ZM10.2344 0.75L10.2343 1.5C11.0218 1.50003 11.7851 1.59818 12.5133 1.78261L12.6975 1.05557L12.8816 0.328526C12.0339 0.113828 11.1469 3.8147e-05 10.2344 0L10.2344 0.75ZM13.3133 1.76539L12.5825 1.93414C12.8077 2.9095 13.4217 3.79568 14.3594 4.33702L14.7344 3.6875L15.1094 3.03798C14.5477 2.71368 14.1798 2.18468 14.044 1.59665L13.3133 1.76539ZM14.7344 3.6875L14.3594 4.33705C15.2201 4.83386 16.1958 4.9482 17.0898 4.73729L16.9176 4.00733L16.7454 3.27736C16.2067 3.40446 15.6245 3.33534 15.1093 3.03795L14.7344 3.6875ZM17.8249 4.24417L17.2557 4.7325C17.9992 5.59927 18.5843 6.60424 18.9676 7.7037L19.6758 7.45679L20.384 7.20987C19.9379 5.93047 19.2576 4.76231 18.3941 3.75583L17.8249 4.24417ZM19.3262 8.43652L18.8491 7.8579C18.0172 8.54398 17.4844 9.5845 17.4844 10.75H18.2344H18.9844C18.9844 10.0517 19.3019 9.42878 19.8034 9.01513L19.3262 8.43652ZM18.2344 10.75H17.4844C17.4844 11.9156 18.0175 12.9555 18.8493 13.6413L19.3264 13.0626L19.8035 12.4839C19.3018 12.0703 18.9844 11.448 18.9844 10.75H18.2344ZM19.6759 14.0421L18.9677 13.7952C18.5843 14.8947 17.9987 15.8996 17.2546 16.7666L17.8238 17.255L18.393 17.7435C19.2567 16.737 19.9378 15.5689 20.3841 14.289L19.6759 14.0421ZM16.9168 17.492L17.0886 16.7619C16.1947 16.5515 15.2196 16.6664 14.3594 17.163L14.7344 17.8125L15.1093 18.462C15.6246 18.1646 16.2065 18.0953 16.7449 18.222L16.9168 17.492ZM14.7344 17.8125L14.3594 17.163C13.422 17.7042 12.808 18.5898 12.5826 19.5649L13.3134 19.7338L14.0441 19.9027C14.1799 19.315 14.5477 18.7863 15.1094 18.462L14.7344 17.8125ZM12.6976 20.4435L12.5132 19.7165C11.7848 19.9013 11.0215 20 10.2343 20L10.2344 20.75L10.2344 21.5C11.1474 21.5 12.0345 21.3855 12.882 21.1705L12.6976 20.4435ZM10.2344 20.75V20C9.44652 20 8.68239 19.9014 7.95346 19.7165L7.76909 20.4435L7.58471 21.1705C8.43294 21.3856 9.32091 21.5 10.2344 21.5V20.75ZM7.1536 19.7338L7.88441 19.5653C7.65964 18.5906 7.04704 17.7045 6.10948 17.163L5.73438 17.8125L5.35927 18.462C5.92026 18.786 6.28718 19.3144 6.42278 19.9024L7.1536 19.7338ZM5.73438 17.8125L6.10938 17.163C5.24888 16.6662 4.27277 16.5511 3.3783 16.7618L3.55025 17.4918L3.7222 18.2218C4.26105 18.0949 4.84386 18.1644 5.35938 18.462L5.73438 17.8125ZM2.64287 17.2548L3.21213 16.7665C2.46848 15.8996 1.88334 14.8947 1.50008 13.7952L0.791878 14.0421L0.0836742 14.289C0.52972 15.5686 1.21023 16.7366 2.07362 17.7431L2.64287 17.2548ZM1.14147 13.0627L1.61843 13.6415C2.45035 12.9559 2.98438 11.916 2.98438 10.75H2.23438H1.48438C1.48438 11.4477 1.16661 12.0701 0.664511 12.4839L1.14147 13.0627ZM2.23438 10.75H2.98438C2.98438 9.58409 2.4507 8.5436 1.61865 7.85774L1.1416 8.43646L0.664549 9.01519C1.16658 9.42901 1.48438 10.052 1.48438 10.75H2.23438ZM0.791975 7.45676L1.50016 7.70368C1.88349 6.60426 2.46854 5.5993 3.21209 4.73253L2.64285 4.24421L2.07361 3.75588C1.21022 4.76234 0.529854 5.93048 0.0837862 7.20984L0.791975 7.45676ZM3.55022 4.00738L3.37798 4.73733C4.27225 4.94834 5.24847 4.83406 6.10938 4.33702L5.73438 3.6875L5.35938 3.03798C4.84412 3.33546 4.26152 3.40462 3.72246 3.27742L3.55022 4.00738ZM5.73438 3.6875L6.10945 4.33698C7.04742 3.7953 7.65997 2.90867 7.88456 1.93371L7.1537 1.76535L6.42284 1.59699C6.28731 2.18533 5.92036 2.71401 5.3593 3.03802L5.73438 3.6875ZM7.76925 1.05557L7.95339 1.78261C8.68205 1.59807 9.4463 1.5 10.2344 1.5V0.75V0C9.32143 0 8.4335 0.113657 7.58512 0.328522L7.76925 1.05557ZM7.1537 1.76535L7.88456 1.93371C7.90003 1.86656 7.92632 1.81922 7.9467 1.79443C7.96418 1.77316 7.96724 1.7791 7.95339 1.78261L7.76925 1.05557L7.58512 0.328522C6.89423 0.503499 6.53728 1.10019 6.42284 1.59699L7.1537 1.76535ZM1.1416 8.43646L1.61865 7.85774C1.55798 7.80772 1.52274 7.75364 1.50861 7.71748C1.49673 7.68708 1.50548 7.68844 1.50016 7.70368L0.791975 7.45676L0.0837862 7.20984C-0.181611 7.97103 0.229534 8.6566 0.664549 9.01519L1.1416 8.43646ZM3.55025 17.4918L3.3783 16.7618C3.31142 16.7775 3.25746 16.7749 3.22621 16.7676C3.19933 16.7613 3.20303 16.7559 3.21213 16.7665L2.64287 17.2548L2.07362 17.7431C2.53615 18.2823 3.22678 18.3385 3.7222 18.2218L3.55025 17.4918ZM7.76909 20.4435L7.95346 19.7165C7.96724 19.72 7.96412 19.7259 7.9466 19.7046C7.9262 19.6798 7.8999 19.6324 7.88441 19.5653L7.1536 19.7338L6.42278 19.9024C6.53732 20.399 6.89421 20.9954 7.58471 21.1705L7.76909 20.4435ZM13.3134 19.7338L12.5826 19.5649C12.5671 19.6322 12.5407 19.6796 12.5202 19.7045C12.5027 19.7259 12.4995 19.72 12.5132 19.7165L12.6976 20.4435L12.882 21.1705C13.5725 20.9954 13.9294 20.399 14.0441 19.9027L13.3134 19.7338ZM17.8238 17.255L17.2546 16.7666C17.2637 16.756 17.2674 16.7615 17.2406 16.7678C17.2093 16.775 17.1554 16.7777 17.0886 16.7619L16.9168 17.492L16.7449 18.222C17.2403 18.3386 17.9305 18.2823 18.393 17.7435L17.8238 17.255ZM19.6758 7.45679L18.9676 7.7037C18.9623 7.68846 18.9711 7.6871 18.9592 7.71753C18.945 7.75371 18.9098 7.80784 18.8491 7.8579L19.3262 8.43652L19.8034 9.01513C20.2382 8.65655 20.6494 7.97104 20.384 7.20987L19.6758 7.45679ZM0.791878 14.0421L1.50008 13.7952C1.50539 13.8105 1.49666 13.8119 1.50852 13.7815C1.52262 13.7454 1.55782 13.6914 1.61843 13.6415L1.14147 13.0627L0.664511 12.4839C0.22939 12.8424 -0.181633 13.5279 0.0836742 14.289L0.791878 14.0421ZM16.9176 4.00733L17.0898 4.73729C17.1566 4.72154 17.2105 4.72415 17.2417 4.73142C17.2685 4.73767 17.2648 4.74311 17.2557 4.7325L17.8249 4.24417L18.3941 3.75583C17.9316 3.21667 17.2409 3.16046 16.7454 3.27736L16.9176 4.00733ZM2.64285 4.24421L3.21209 4.73253C3.20299 4.74314 3.19928 4.7377 3.2261 4.73145C3.2573 4.72418 3.31119 4.72157 3.37798 4.73733L3.55022 4.00738L3.72246 3.27742C3.22688 3.16048 2.53617 3.21667 2.07361 3.75588L2.64285 4.24421ZM19.3264 13.0626L18.8493 13.6413C18.9099 13.6913 18.9451 13.7453 18.9593 13.7815C18.9711 13.8118 18.9624 13.8104 18.9677 13.7952L19.6759 14.0421L20.3841 14.289C20.6494 13.5279 20.2384 12.8425 19.8035 12.4839L19.3264 13.0626ZM12.6975 1.05557L12.5133 1.78261C12.4995 1.7791 12.5026 1.77318 12.5201 1.79453C12.5406 1.8194 12.5669 1.86685 12.5825 1.93414L13.3133 1.76539L14.044 1.59665C13.9294 1.10019 13.5725 0.503515 12.8816 0.328526L12.6975 1.05557Z" fill="white"/>
</svg>
